<svg height="512" viewBox="0 0 64 64" width="512" xmlns="http://www.w3.org/2000/svg"><path d="m15 45h8v11h-8z" fill="#57a4ff"/><path d="m43 28h4v28h-4z" fill="#57a4ff"/><path d="m15 33h8v8h-8z" fill="#57a4ff"/><g fill="#004fac"><path d="m62 55h-1a1 1 0 0 0 0 2h1a1 1 0 0 0 0-2z"/><path d="m60 11a1 1 0 0 0 -1-1h-28a1 1 0 0 0 -1 1v17a1 1 0 0 0 1 1h11v26h-10v-21a1 1 0 0 0 -.36-.768l-12-10a1 1 0 0 0 -1.28 0l-12 10a1 1 0 0 0 -.36.768v21h-4a1 1 0 0 0 0 2h56a1 1 0 0 0 0-2h-10v-26h11a1 1 0 0 0 1-1zm-38 36h-6v-1h6zm-6 8v-6h6v6zm8 0v-10a1 1 0 0 0 -1-1h-8a1 1 0 0 0 -1 1v10h-6v-20.532l11-9.168 11 9.166v20.534zm22 0h-2v-26h2zm12-28h-26v-15h26z"/><path d="m36 22a1 1 0 0 0 0 2h2a1 1 0 0 0 1-1v-4a1 1 0 0 0 -1-1h-1v-1h1a1 1 0 0 0 0-2h-2a1 1 0 0 0 -1 1v3a1 1 0 0 0 1 1h1v2z"/><path d="m41 24a1 1 0 0 0 1-1v-3h1v3a1 1 0 0 0 2 0v-7a1 1 0 0 0 -1-1h-3a1 1 0 0 0 -1 1v7a1 1 0 0 0 1 1zm1-7h1v1h-1z"/><path d="m47 24h2a1 1 0 0 0 0-2h-1v-6a1 1 0 0 0 -2 0v7a1 1 0 0 0 1 1z"/><path d="m52 24h2a1 1 0 0 0 0-2h-1v-2h1a1 1 0 0 0 0-2h-1v-1h1a1 1 0 0 0 0-2h-2a1 1 0 0 0 -1 1v7a1 1 0 0 0 1 1z"/><path d="m23 32h-8a1 1 0 0 0 -1 1v8a1 1 0 0 0 1 1h8a1 1 0 0 0 1-1v-8a1 1 0 0 0 -1-1zm-7 2h6v1h-6zm0 6v-3h2v3zm6 0h-2v-3h2z"/><path d="m6 25h7a.929.929 0 0 0 .5-.145 3.5 3.5 0 0 0 -.619-6.834 3.99 3.99 0 0 0 -7.344-.994 4 4 0 0 0 .463 7.973zm-.035-6 .148.016a.992.992 0 0 0 1.01-.669 1.992 1.992 0 0 1 3.877.608c0 .024 0 .049-.005.068a1 1 0 0 0 1.2 1.008 1.449 1.449 0 0 1 .305-.031 1.5 1.5 0 0 1 .3 2.97 1.088 1.088 0 0 0 -.112.03h-6.688a2 2 0 0 1 -.035-4z"/><path d="m19 18h7a.929.929 0 0 0 .5-.145 3.5 3.5 0 0 0 -.619-6.834 3.99 3.99 0 0 0 -7.344-.994 4 4 0 0 0 .463 7.973zm-.035-6 .148.016a.991.991 0 0 0 1.01-.669 1.992 1.992 0 0 1 3.877.608v.068a1 1 0 0 0 1.2 1.008 1.531 1.531 0 0 1 1.8 1.469 1.5 1.5 0 0 1 -1.2 1.47 1.088 1.088 0 0 0 -.112.03h-6.688a2 2 0 0 1 -.035-4z"/></g></svg>